<svg xmlns="http://www.w3.org/2000/svg" width="252.69" height="168.7" viewBox="0 0 252.69 168.7">
  <defs>
    <style>
      .cls-1 {
        fill: #fff;
      }
    </style>
  </defs>
  <title>Timeline Logo White</title>
  <g id="Layer_2" data-name="Layer 2">
    <g id="Layer_1-2" data-name="Layer 1">
      <g>
        <g>
          <path class="cls-1" d="M243.62,115.1c-2,1.8-8.5,6.6-11.39,4.1-22.9-27.3-21.2,10-33.41,0-3.5-3-7.9-10-13.9-10.2-6.89.2-8.39,7.7-14.5,12-4.19,1.3-6.3-3.6-9.89-6.8-12.9-13.5-14.9,1.8-24.61,7-3.19-.3-4.3-2.7-7.19-5.5-18.31-20.8-22.31,15.2-29.81,3.7-14.6-22.6-22.3.5-22.8,1.8-1.8,4.6-1.6,3.3-1.7,3.5l-2,4.8-2.8-1.7c1.1-2.8,2.1-5.3,3.2-7.7,25-57.9,20,4.4,42.8-19.5,14.11-22.2,16.61,25.1,36.8-4.2,1.4-1.6,3.31-3,5.2-2.1,31.5,34,19.7-20.1,43.7,9.7,8.6,6.4,14.3-2.6,20.6-9.6"/>
          <path class="cls-1" d="M199.82,102.2c15,12.3,15.7-9.7,25-8.2,5.5,3.3,8.2,10.8,15.1,11.9,4.7,2.5,14.81-12.9,12.4-2.6-29.5,44.7-19-19.6-47.8,17-3.1,1.3-3.5,0-7.1-3.3"/>
        </g>
        <path class="cls-1" d="M58.82,38.4l2.6-.8c17.9-3.6,34.9-6.9,43.81,4.1l.69.5a2.41,2.41,0,0,1,0,3,1.46,1.46,0,0,1-2.1.3l-.3-.3c-7.5-9.3-23.6-6-40.7-2.8l-4.6.8c-9.5,47.3-21,113.3-8.2,113.3,6.6,0,16.3-19.8,22.9-36.3a1.49,1.49,0,0,1,1.4-1.3c1.31,0,2,2.1,1.5,3.3-.9,3.1-20.8,46.5-29.8,46.5-26.7,0-15-71.8-4.2-123.2-3.09.3-6.2.5-9.3.5-12.2,0-23.6-3.3-32-13.8a2.43,2.43,0,0,1,0-3,1.4,1.4,0,0,1,2-.2l.3.3c10,12.4,24.8,13.7,40,11.8C43.72,37.3,58.82,38.4,58.82,38.4Z"/>
        <polygon class="cls-1" points="42.83 41.1 58.73 38.4 59.02 36.9 63.63 14.6 59.02 17.1 56.13 13.7 52.13 16.1 48.83 12.4 44.23 34.8 42.83 41.1"/>
        <polyline class="cls-1" points="63.73 12.6 59.23 0 50.02 10.6 52.83 13.7 56.83 11.3 59.73 14.8"/>
        <path class="cls-1" d="M107.42,90.2a5,5,0,1,0,5,5A5,5,0,0,0,107.42,90.2Zm0,7.9a2.9,2.9,0,1,1,2.9-2.9h0a2.9,2.9,0,0,1-2.9,2.9Z"/>
      </g>
    </g>
  </g>
</svg>
